<?xml version="1.0" encoding="UTF-8"?>
<svg version="1.1" xmlns="http://www.w3.org/2000/svg" width="850" height="676">
<path d="M0 0 C280.5 0 561 0 850 0 C850 223.08 850 446.16 850 676 C569.5 676 289 676 0 676 C0 452.92 0 229.84 0 0 Z " fill="#020202" transform="translate(0,0)"/>
<path d="M0 0 C1.11785889 -0.00315216 2.23571777 -0.00630432 3.38745117 -0.009552 C5.21240112 -0.00651566 5.21240112 -0.00651566 7.07421875 -0.00341797 C8.31341064 -0.00437469 9.55260254 -0.00533142 10.8293457 -0.00631714 C13.45560156 -0.00699921 16.08176508 -0.00564085 18.70800781 -0.00097656 C22.08100589 0.00472073 25.4539244 0.00144151 28.82691956 -0.00454903 C32.03435552 -0.00902317 35.24178175 -0.00589429 38.44921875 -0.00341797 C39.66585205 -0.0054422 40.88248535 -0.00746643 42.13598633 -0.009552 C43.81277466 -0.00482376 43.81277466 -0.00482376 45.5234375 0 C46.51303467 0.00079559 47.50263184 0.00159119 48.5222168 0.00241089 C50.76171875 0.12939453 50.76171875 0.12939453 51.76171875 1.12939453 C51.84920082 3.05606961 51.86869209 4.98591314 51.859375 6.91455078 C51.85687744 7.96779541 51.85437988 9.02104004 51.85180664 10.10620117 C51.84270264 11.45447998 51.83359863 12.80275879 51.82421875 14.19189453 C51.80359375 18.46126953 51.78296875 22.73064453 51.76171875 27.12939453 C60.67171875 27.12939453 69.58171875 27.12939453 78.76171875 27.12939453 C78.76171875 42.63939453 78.76171875 58.14939453 78.76171875 74.12939453 C79.42171875 74.12939453 80.08171875 74.12939453 80.76171875 74.12939453 C81.00148438 73.45005859 81.24125 72.77072266 81.48828125 72.07080078 C83.03304176 68.50268832 85.02698874 65.31767132 87.13671875 62.06689453 C87.5234375 61.45523438 87.91015625 60.84357422 88.30859375 60.21337891 C89.98969265 57.60429085 91.60724784 55.27611318 93.86328125 53.13330078 C95.96604831 51.15580435 95.96604831 51.15580435 97.01098633 48.07348633 C98.97582487 43.33620271 101.80515003 39.25247874 104.671875 35.02001953 C105.23998398 34.17139343 105.80809296 33.32276733 106.39341736 32.44842529 C108.1982662 29.75506529 110.01108299 27.06718101 111.82421875 24.37939453 C113.04675719 22.55813777 114.26876789 20.73652664 115.49023438 18.91455078 C118.173406 14.91429398 120.86159922 10.91746837 123.55433655 6.92364502 C124.62777028 5.3284509 125.69517808 3.72920554 126.76171875 2.12939453 C129.89004764 1.08661824 132.05360962 1.00862608 135.3347168 1.01586914 C136.47567307 1.01594467 137.61662933 1.0160202 138.79216003 1.01609802 C140.63914238 1.02383995 140.63914238 1.02383995 142.5234375 1.03173828 C143.78436722 1.03315323 145.04529694 1.03456818 146.34443665 1.036026 C149.69323584 1.04067879 153.04196686 1.04966112 156.39074707 1.06072998 C159.80932018 1.07096766 163.22790034 1.07552867 166.64648438 1.08056641 C173.35158136 1.09160354 180.05664612 1.10834767 186.76171875 1.12939453 C186.01062583 4.4260227 184.92405367 6.72352371 183.07421875 9.57080078 C182.54054688 10.40160156 182.006875 11.23240234 181.45703125 12.08837891 C180.61785156 13.37711914 180.61785156 13.37711914 179.76171875 14.69189453 C178.65466654 16.39966287 177.55037323 18.1092237 176.44921875 19.82080078 C175.95808594 20.57562744 175.46695313 21.3304541 174.9609375 22.1081543 C173.61665673 24.21106309 173.61665673 24.21106309 172.76171875 27.12939453 C185.96171875 27.12939453 199.16171875 27.12939453 212.76171875 27.12939453 C211.94253162 30.40614306 211.37382429 32.05452944 209.6796875 34.78955078 C209.24881836 35.49031738 208.81794922 36.19108398 208.37402344 36.91308594 C207.66874512 38.04109619 207.66874512 38.04109619 206.94921875 39.19189453 C206.45711914 39.98772949 205.96501953 40.78356445 205.45800781 41.60351562 C201.02437753 48.75593437 196.52392836 55.86659369 192.0234375 62.97705078 C191.50442871 63.79705566 190.98541992 64.61706055 190.45068359 65.46191406 C189.25109051 67.35650124 188.05082545 69.25066301 186.85009766 71.14453125 C184.83675585 74.32403355 182.83001669 77.50762899 180.82421875 80.69189453 C179.88400879 82.17230225 179.88400879 82.17230225 178.92480469 83.68261719 C175.59248724 88.98403132 172.5656575 94.28495861 169.92456055 99.96557617 C168.34704783 102.90101502 166.31125667 105.18424996 163.99609375 107.55908203 C162.55880128 109.38753637 162.2877803 110.88909794 161.76171875 113.12939453 C160.42838542 114.46272786 159.09505208 115.7960612 157.76171875 117.12939453 C157.59671875 117.78939453 157.43171875 118.44939453 157.26171875 119.12939453 C156.76171875 121.12939453 156.76171875 121.12939453 154.90576172 122.97631836 C152.80834999 125.08256682 151.44988675 127.02210501 149.95703125 129.57861328 C149.45558594 130.42746094 148.95414063 131.27630859 148.4375 132.15087891 C147.92574219 133.03066406 147.41398438 133.91044922 146.88671875 134.81689453 C143.43107806 140.71622999 139.91568051 146.51656489 136.0480957 152.15698242 C133.7443151 155.68938771 131.50844179 159.17050565 132.0703125 163.51611328 C132.77818103 166.19161639 133.68959318 168.64165467 134.76171875 171.19189453 C136.00370639 174.15531357 137.06563354 176.98976022 137.76171875 180.12939453 C138.42171875 180.12939453 139.08171875 180.12939453 139.76171875 180.12939453 C141.93057545 183.0869264 143.2164714 186.23075405 144.51171875 189.62939453 C146.1347639 193.82434199 148.08853064 197.69165198 150.26171875 201.62939453 C153.22392028 207.01062205 155.58226921 212.39860981 157.76171875 218.12939453 C160.18941048 224.16360907 163.18647351 229.84500317 166.26171875 235.56689453 C169.52065968 241.63583394 172.3475451 247.67234635 174.76171875 254.12939453 C176.81202363 259.11876306 179.12937871 263.8577837 181.76171875 268.56689453 C183.66559516 271.99007381 185.31576626 275.34091733 186.69921875 279.00439453 C188.69220479 284.25787237 191.38326002 289.03730514 194.09375 293.94970703 C195.9720688 297.53038971 197.44026502 301.15729147 198.8671875 304.93408203 C199.69501735 306.9656994 200.63183967 308.75353351 201.76171875 310.62939453 C203.30901822 313.20624327 204.44548594 315.75634226 205.51171875 318.56689453 C208.11901541 325.32310373 211.47360641 331.70447748 214.75488281 338.15087891 C220.05661725 348.56922417 220.05661725 348.56922417 222.01171875 353.37939453 C222.346875 354.18892578 222.68203125 354.99845703 223.02734375 355.83251953 C223.76171875 358.12939453 223.76171875 358.12939453 223.76171875 362.12939453 C215.7645161 362.31495155 207.76821575 362.45699355 199.76939106 362.54389191 C196.05487739 362.58560529 192.34183853 362.64215099 188.62817383 362.73291016 C185.04243241 362.81999212 181.45810673 362.86769766 177.87138939 362.88841248 C176.50487153 362.90316825 175.13842928 362.93198712 173.77251625 362.97523499 C163.05786565 363.30091743 163.05786565 363.30091743 159.82702637 360.38072205 C158.5234634 358.32914932 157.60061 356.40501348 156.76171875 354.12939453 C156.34664062 353.32630859 155.9315625 352.52322266 155.50390625 351.69580078 C153.29200231 346.58450924 151.44723941 341.4387846 149.76171875 336.12939453 C144.81171875 336.12939453 139.86171875 336.12939453 134.76171875 336.12939453 C129.80636161 327.55796596 129.80636161 327.55796596 128.13671875 322.87939453 C126.93693542 319.24400659 126.93693542 319.24400659 125.26171875 316.62939453 C123.63800744 313.92320901 122.64343335 311.26222242 121.57421875 308.30517578 C119.66887416 303.20288281 117.48730677 298.24917976 114.69921875 293.56689453 C112.90698307 290.38712156 111.68787731 287.38320408 110.4765625 283.96533203 C109.7543584 281.95816539 109.7543584 281.95816539 108.26171875 279.62939453 C106.71220956 277.04687921 105.78320454 274.45176745 104.7734375 271.62548828 C103.46973486 268.4090173 101.90266716 265.34183631 100.32421875 262.25439453 C97.87233714 257.44743287 95.66174617 252.62924904 93.73828125 247.58642578 C92.22432122 243.77730234 90.46275415 240.08580695 88.71484375 236.37939453 C87.76171875 234.12939453 87.76171875 234.12939453 87.76171875 232.12939453 C86.77171875 232.12939453 85.78171875 232.12939453 84.76171875 232.12939453 C84.35953125 233.73814453 84.35953125 233.73814453 83.94921875 235.37939453 C82.76171875 239.12939453 82.76171875 239.12939453 81.21242046 241.05134964 C79.4292607 243.60562113 79.37929946 245.03609272 79.36299133 248.12811279 C79.35045319 249.13489578 79.33791504 250.14167877 79.32499695 251.17897034 C79.32714958 252.82650551 79.32714958 252.82650551 79.3293457 254.50732422 C79.31915405 255.66858322 79.3089624 256.82984222 79.29846191 258.02629089 C79.26824668 261.86799898 79.25905266 265.70945806 79.25 269.55126953 C79.23315964 272.21358022 79.21515631 274.87585751 79.19560242 277.53814697 C79.15193478 283.83140466 79.12338953 290.12463642 79.10027903 296.41799951 C79.07322871 303.58369175 79.02931715 310.74924963 78.98399031 317.91484594 C78.89114037 332.65294938 78.81946125 347.39111073 78.76171875 362.12939453 C71.08635248 362.15252274 63.41098979 362.17031206 55.73559666 362.1812067 C52.17194453 362.18643449 48.60831618 362.19353022 45.04467773 362.20483398 C40.95165778 362.21773629 36.85866295 362.22262359 32.765625 362.22705078 C30.83753746 362.23479271 30.83753746 362.23479271 28.87049866 362.24269104 C27.09877541 362.24280434 27.09877541 362.24280434 25.29125977 362.24291992 C23.72239769 362.24625084 23.72239769 362.24625084 22.12184143 362.24964905 C19.76171875 362.12939453 19.76171875 362.12939453 18.76171875 361.12939453 C18.6743423 359.27569842 18.65473722 357.41871912 18.6640625 355.56298828 C18.66728516 354.43828125 18.67050781 353.31357422 18.67382812 352.15478516 C18.68220703 350.97078125 18.69058594 349.78677734 18.69921875 348.56689453 C18.70373047 347.37902344 18.70824219 346.19115234 18.71289062 344.96728516 C18.724722 342.02127227 18.74120588 339.07535772 18.76171875 336.12939453 C17.6790271 336.13724976 17.6790271 336.13724976 16.57446289 336.14526367 C13.32439026 336.16596811 10.07433147 336.17903371 6.82421875 336.19189453 C5.11975586 336.20446289 5.11975586 336.20446289 3.38085938 336.21728516 C2.30126953 336.22050781 1.22167969 336.22373047 0.109375 336.22705078 C-1.3909729 336.23490601 -1.3909729 336.23490601 -2.92163086 336.24291992 C-5.23828125 336.12939453 -5.23828125 336.12939453 -6.23828125 335.12939453 C-6.33661567 333.35280057 -6.36383742 331.57225149 -6.36412239 329.79293823 C-6.36803401 328.04569552 -6.36803401 328.04569552 -6.37202466 326.26315498 C-6.36979393 324.96717321 -6.36756321 323.67119144 -6.36526489 322.3359375 C-6.36641576 320.9581034 -6.36800304 319.5802696 -6.36999214 318.20243645 C-6.37419024 314.3984925 -6.37209262 310.59457345 -6.36900592 306.79062939 C-6.36675398 302.69515496 -6.3702304 298.59968498 -6.37298584 294.50421143 C-6.37744475 286.47416437 -6.37646653 278.44412662 -6.3735732 270.41407919 C-6.37131964 263.89094052 -6.37100644 257.36780447 -6.37209702 250.84466553 C-6.37225025 249.91811909 -6.37240348 248.99157264 -6.37256136 248.03694904 C-6.37288107 246.1549983 -6.37320528 244.27304757 -6.37353395 242.39109683 C-6.3763891 224.7221743 -6.37310118 207.05325696 -6.36773358 189.38433528 C-6.36326551 174.20625348 -6.36404144 159.02817932 -6.36865234 143.85009766 C-6.3739975 126.24667039 -6.3761144 108.64324768 -6.37304008 91.03981972 C-6.37272151 89.16458766 -6.37240714 87.2893556 -6.37209702 85.41412354 C-6.37194274 84.49134641 -6.37178846 83.56856928 -6.37162951 82.6178292 C-6.37076418 76.09855088 -6.37222758 69.57927543 -6.37457657 63.05999756 C-6.37737411 55.12088551 -6.37663728 47.18178335 -6.37129582 39.24267244 C-6.36865819 35.18795254 -6.36765479 31.13324916 -6.37094498 27.07852936 C-6.37390668 23.37272506 -6.37231726 19.66695273 -6.36696742 15.96115136 C-6.36530648 13.97264558 -6.36860192 11.98413761 -6.37202466 9.99563408 C-6.36941691 8.83080561 -6.36680916 7.66597713 -6.36412239 6.46585083 C-6.36396004 5.4521599 -6.36379769 4.43846897 -6.36363041 3.39406013 C-6.12563139 -0.90583451 -3.7528085 0.0030171 0 0 Z " fill="#FDFDFD" transform="translate(470.23828125,154.87060546875)"/>
<path d="M0 0 C0.99261337 0.00222061 1.98522675 0.00444122 3.00791931 0.00672913 C4.12900589 0.00680466 5.25009247 0.00688019 6.40515137 0.00695801 C8.2348069 0.01469994 8.2348069 0.01469994 10.10142517 0.02259827 C11.96377052 0.02472069 11.96377052 0.02472069 13.86373901 0.02688599 C17.16982383 0.03154861 20.47584039 0.04053955 23.78190613 0.05158997 C27.15338042 0.06180625 30.52486175 0.06638407 33.89634705 0.07142639 C40.51550667 0.08248056 47.13463385 0.09923715 53.75376892 0.12025452 C54.86027409 3.8982469 54.44877343 5.81101127 53.10142517 9.54212952 C52.77408386 10.46606506 52.44674255 11.39000061 52.10948181 12.3419342 C51.46934143 14.08845276 51.46934143 14.08845276 50.81626892 15.87025452 C49.47564392 19.58275452 48.13501892 23.29525452 46.75376892 27.12025452 C57.97376892 27.12025452 69.19376892 27.12025452 80.75376892 27.12025452 C79.62788721 35.00142652 79.62788721 35.00142652 78.48423767 38.38978577 C78.23480408 39.13421936 77.98537048 39.87865295 77.7283783 40.64564514 C77.4686322 41.40039124 77.20888611 42.15513733 76.94126892 42.93275452 C76.56905212 44.04747131 76.56905212 44.04747131 76.1893158 45.18470764 C74.88507185 49.0377031 73.48110315 52.82162878 71.9249115 56.57997131 C69.43850407 62.77021542 67.39439766 69.08620139 65.34751892 75.43275452 C64.72613234 77.34241159 64.1047419 79.25206741 63.48313141 81.16165161 C62.40384868 84.4802693 61.32892793 87.800299 60.25376892 91.12025452 C58.96881238 95.08803835 57.68303837 99.05554354 56.39207458 103.02137756 C55.59200552 105.48016508 54.79487748 107.93991224 54.00120544 110.40077209 C52.09806366 116.24820915 50.05444394 121.97114322 47.72190857 127.6598053 C45.93930919 132.19013856 44.48854526 136.82936505 43.00376892 141.46400452 C42.66377869 142.51374451 42.32378845 143.5634845 41.97349548 144.64503479 C40.89699444 147.96906538 39.82482644 151.29446626 38.75376892 154.62025452 C37.34104752 159.00695847 35.92377432 163.39215373 34.50376892 167.77650452 C34.18698181 168.7653363 33.8701947 169.75416809 33.54380798 170.77296448 C33.23668884 171.7209491 32.9295697 172.66893372 32.61314392 173.64564514 C32.34985291 174.46375671 32.08656189 175.28186829 31.81529236 176.12477112 C30.92205594 178.64537007 29.96367168 181.1097572 28.96101379 183.58776855 C19.59686836 206.93254607 15.23983449 226.84459501 15.53790045 251.93739772 C15.5731478 255.83440067 15.55002668 259.73113545 15.53407288 263.62820435 C15.51246389 270.95162719 15.54054474 278.2739088 15.58819592 285.59717327 C15.64005098 293.95813993 15.63389915 302.31878338 15.62377524 310.67986858 C15.60426565 327.82707264 15.65467466 344.97333278 15.75376892 362.12025452 C8.20878659 362.14338303 0.66380792 362.1611722 -6.88120174 362.17206669 C-10.38431992 362.1772944 -13.88741393 362.18439002 -17.39051819 362.19569397 C-21.41403948 362.20859657 -25.43753522 362.21348363 -29.46107483 362.21791077 C-30.72459274 362.22307205 -31.98811066 362.22823334 -33.28991699 362.23355103 C-34.45104507 362.23362656 -35.61217316 362.23370209 -36.80848694 362.23377991 C-38.35070168 362.23711082 -38.35070168 362.23711082 -39.92407227 362.24050903 C-42.24623108 362.12025452 -42.24623108 362.12025452 -43.24623108 361.12025452 C-43.33360753 359.2665584 -43.35321261 357.40957911 -43.34388733 355.55384827 C-43.33905334 353.86678772 -43.33905334 353.86678772 -43.3341217 352.14564514 C-43.32155334 350.36963928 -43.32155334 350.36963928 -43.30873108 348.55775452 C-43.30421936 347.36988342 -43.29970764 346.18201233 -43.2950592 344.95814514 C-43.28322783 342.01213226 -43.26674395 339.06621771 -43.24623108 336.12025452 C-44.37436218 336.12810974 -44.37436218 336.12810974 -45.52528381 336.13612366 C-48.9114245 336.15682679 -52.29755192 336.16989328 -55.68373108 336.18275452 C-56.86773499 336.19113342 -58.05173889 336.19951233 -59.2716217 336.20814514 C-60.39632874 336.2113678 -61.52103577 336.21459045 -62.67982483 336.21791077 C-64.24301453 336.22576599 -64.24301453 336.22576599 -65.83778381 336.23377991 C-68.24623108 336.12025452 -68.24623108 336.12025452 -69.24623108 335.12025452 C-69.34606282 333.34812067 -69.37532308 331.57198506 -69.37753296 329.79704285 C-69.38154114 328.64199753 -69.38554932 327.48695221 -69.38967896 326.29690552 C-69.38915024 325.01802963 -69.38862152 323.73915375 -69.38807678 322.42152405 C-69.3911069 321.06978237 -69.39462795 319.71804171 -69.39860535 318.36630249 C-69.40651047 315.44703685 -69.41164551 312.52778352 -69.41489601 309.60850906 C-69.42080148 304.98469042 -69.43734081 300.36094897 -69.45623779 295.73716736 C-69.46257601 294.15401654 -69.46890162 292.57086568 -69.47521496 290.98771477 C-69.47838077 290.19457367 -69.48154658 289.40143257 -69.48480833 288.58425689 C-69.52685563 277.81697332 -69.55981699 267.04972399 -69.57215881 256.28236389 C-69.58056314 249.02486064 -69.6031477 241.76754686 -69.64151448 234.51013839 C-69.66120852 230.67166694 -69.67370233 226.83347832 -69.66868019 222.99495316 C-69.66400255 219.37507052 -69.67800681 215.75572148 -69.70569229 212.13594627 C-69.71579993 210.19028425 -69.70640231 208.24455068 -69.69619751 206.29888916 C-69.76876829 199.41155243 -70.59540892 193.88019949 -73.29068279 187.51713371 C-74.26571385 185.07138429 -74.80502673 182.76704068 -75.26185608 180.17884827 C-76.32142432 174.33402218 -78.14724962 168.81896522 -79.99623108 163.18275452 C-82.75362141 154.76346813 -85.50097092 146.34111719 -88.22816467 137.91200256 C-94.23901 119.34868043 -100.32562988 100.81338963 -106.55163574 82.32101631 C-107.61220389 79.17073759 -108.67141245 76.0200048 -109.73023987 72.86914062 C-114.02780574 60.08247957 -114.02780574 60.08247957 -118.34339905 47.30189514 C-120.14521111 41.9774626 -121.93679305 36.64968513 -123.72154617 31.31951141 C-124.39316294 29.32000741 -125.06853607 27.32176075 -125.74787521 25.32486725 C-126.68528247 22.56809232 -127.60955393 19.80723642 -128.53089905 17.0450592 C-128.80812805 16.24011017 -129.08535706 15.43516113 -129.37098694 14.6058197 C-129.62000763 13.85058014 -129.86902832 13.09534058 -130.12559509 12.31721497 C-130.45228841 11.34876207 -130.45228841 11.34876207 -130.78558159 10.36074448 C-131.24623108 8.12025452 -131.24623108 8.12025452 -131.24623108 1.12025452 C-112.76623108 1.12025452 -94.28623108 1.12025452 -75.24623108 1.12025452 C-73.73557122 4.14157423 -72.94170533 5.91699658 -72.30873108 9.05775452 C-71.46132644 13.1117383 -70.55735584 17.14818864 -69.62123108 21.18275452 C-69.23064514 22.87078186 -69.23064514 22.87078186 -68.83216858 24.59291077 C-68.6388092 25.4269342 -68.44544983 26.26095764 -68.24623108 27.12025452 C-66.9700592 27.09705139 -65.69388733 27.07384827 -64.37904358 27.04994202 C-62.70977858 27.03118623 -61.04050727 27.01298583 -59.37123108 26.99525452 C-58.52947327 26.9784967 -57.68771545 26.96173889 -56.82044983 26.94447327 C-55.61195374 26.9348053 -55.61195374 26.9348053 -54.37904358 26.92494202 C-53.63541565 26.91446838 -52.89178772 26.90399475 -52.12562561 26.89320374 C-50.24623108 27.12025452 -50.24623108 27.12025452 -48.24623108 29.12025452 C-47.83216858 31.28431702 -47.83216858 31.28431702 -47.62123108 33.74525452 C-47.50908264 34.97115295 -47.50908264 34.97115295 -47.39466858 36.22181702 C-47.3456842 36.84830139 -47.29669983 37.47478577 -47.24623108 38.12025452 C-46.58623108 38.12025452 -45.92623108 38.12025452 -45.24623108 38.12025452 C-42.58529169 46.67327398 -40.90740617 55.14139451 -41.24623108 64.12025452 C-40.58623108 64.12025452 -39.92623108 64.12025452 -39.24623108 64.12025452 C-39.24623108 65.11025452 -39.24623108 66.10025452 -39.24623108 67.12025452 C-38.58623108 67.12025452 -37.92623108 67.12025452 -37.24623108 67.12025452 C-34.59657927 75.82625331 -32.95161597 83.98718607 -33.24623108 93.12025452 C-32.58623108 93.12025452 -31.92623108 93.12025452 -31.24623108 93.12025452 C-31.24623108 94.11025452 -31.24623108 95.10025452 -31.24623108 96.12025452 C-30.25623108 96.12025452 -29.26623108 96.12025452 -28.24623108 96.12025452 C-28.11345764 95.19341858 -27.9806842 94.26658264 -27.84388733 93.31166077 C-27.66728577 92.1141217 -27.4906842 90.91658264 -27.30873108 89.68275452 C-27.13470764 88.48779358 -26.9606842 87.29283264 -26.78138733 86.06166077 C-26.24623108 83.12025452 -26.24623108 83.12025452 -25.24623108 82.12025452 C-24.89602439 80.41925061 -24.59121055 78.70880766 -24.30873108 76.99525452 C-23.54404111 72.58535074 -22.57486553 68.39086526 -21.24623108 64.12025452 C-20.58623108 64.12025452 -19.92623108 64.12025452 -19.24623108 64.12025452 C-19.17146545 63.42544983 -19.09669983 62.73064514 -19.01966858 62.01478577 C-17.95297494 53.76359677 -15.91399377 46.03885937 -13.56459045 38.07264709 C-11.95471037 32.61384143 -10.45634886 27.15252555 -9.12123108 21.62025452 C-3.88320166 0.20789158 -3.88320166 0.20789158 0 0 Z " fill="#FCFCFC" transform="translate(311.24623107910156,154.87974548339844)"/>
<path d="M0 0 C0.33 0 0.66 0 1 0 C1 39.27 1 78.54 1 119 C-18.47 119 -37.94 119 -58 119 C-59 118 -59 118 -59.11352539 115.59155273 C-59.10828857 114.54942627 -59.10305176 113.5072998 -59.09765625 112.43359375 C-59.09443359 111.30888672 -59.09121094 110.18417969 -59.08789062 109.02539062 C-59.07951172 107.84138672 -59.07113281 106.65738281 -59.0625 105.4375 C-59.05798828 104.24962891 -59.05347656 103.06175781 -59.04882812 101.83789062 C-59.03699686 98.89190588 -59.01906076 95.94594684 -59 93 C-66.92 93 -74.84 93 -83 93 C-83 92.67 -83 92.34 -83 92 C-74.42 92 -65.84 92 -57 92 C-57 100.25 -57 108.5 -57 117 C-38.85 117 -20.7 117 -2 117 C-2.03480469 104.58246094 -2.03480469 104.58246094 -2.0703125 91.9140625 C-2.08182476 86.01738214 -2.09207834 80.12071018 -2.10050774 74.22402573 C-2.11160709 66.57738525 -2.12571647 58.93078821 -2.15087891 51.28417969 C-2.17290879 44.58634186 -2.1845554 37.88856078 -2.18975449 31.19068527 C-2.1934615 28.63011306 -2.20069992 26.06954353 -2.21146011 23.50899124 C-2.22589196 19.93383385 -2.22798143 16.35887304 -2.22705078 12.78369141 C-2.23424133 11.71554703 -2.24143188 10.64740265 -2.24884033 9.54689026 C-2.246091 8.57651321 -2.24334167 7.60613617 -2.24050903 6.60635376 C-2.24235262 5.7601478 -2.24419621 4.91394184 -2.24609566 4.04209328 C-2 2 -2 2 0 0 Z " fill="#AFAFAF" transform="translate(548,398)"/>
<path d="M0 0 C19.47 0 38.94 0 59 0 C59.495 1.98 59.495 1.98 60 4 C57.5625 6.75 57.5625 6.75 55 9 C55.309375 8.401875 55.61875 7.80375 55.9375 7.1875 C57.10209704 4.91043228 57.10209704 4.91043228 58 2 C38.53 2.33 19.06 2.66 -1 3 C-0.67 2.01 -0.34 1.02 0 0 Z " fill="#4C4C4C" transform="translate(599,154)"/>
<path d="M0 0 C8.91 0 17.82 0 27 0 C27 15.51 27 31.02 27 47 C27.66 47.33 28.32 47.66 29 48 C27.68 49.32 26.36 50.64 25 52 C25 35.17 25 18.34 25 1 C16.75 1 8.5 1 0 1 C0 0.67 0 0.34 0 0 Z " fill="#BDBDBD" transform="translate(522,182)"/>
<path d="M0 0 C0.33 0.99 0.66 1.98 1 3 C11.23 3 21.46 3 32 3 C32.495 3.99 32.495 3.99 33 5 C21.78 5 10.56 5 -1 5 C-0.67 3.35 -0.34 1.7 0 0 Z " fill="#2F2F2F" transform="translate(359,177)"/>
<path d="M0 0 C3.79861982 3.79861982 5.06583182 8.83093605 6 14 C6.10957031 13.32453125 6.21914063 12.6490625 6.33203125 11.953125 C6.49058594 11.06109375 6.64914062 10.1690625 6.8125 9.25 C6.96332031 8.36828125 7.11414063 7.4865625 7.26953125 6.578125 C8.05414248 3.8089089 9.14595359 2.1740599 11 0 C10.23204965 3.95904503 9.35008694 7.88440841 8.4375 11.8125 C8.16808594 12.97394531 7.89867187 14.13539063 7.62109375 15.33203125 C7.41613281 16.21246094 7.21117187 17.09289062 7 18 C6.01 18 5.02 18 4 18 C4 17.01 4 16.02 4 15 C3.34 15 2.68 15 2 15 C1.93941406 14.41992188 1.87882812 13.83984375 1.81640625 13.2421875 C1.33983439 8.79907137 0.78991334 4.40094577 0 0 Z " fill="#757575" transform="translate(276,233)"/>
<path d="M0 0 C1.485 0.99 1.485 0.99 3 2 C3.54501065 4.75711269 3.92549765 7.34152546 4.1875 10.125 C4.26935547 10.87910156 4.35121094 11.63320312 4.43554688 12.41015625 C4.6358897 14.27216607 4.81954036 16.13595811 5 18 C4.67 17.01 4.34 16.02 4 15 C3.34 15 2.68 15 2 15 C1.66223316 13.2508503 1.32996329 11.50063855 1 9.75 C0.814375 8.77546875 0.62875 7.8009375 0.4375 6.796875 C0 4 0 4 0 0 Z " fill="#7A7A7A" transform="translate(268,204)"/>
<path d="M0 0 C0.99 0 1.98 0 3 0 C3.86366822 1.78710586 4.71568594 3.5798465 5.5625 5.375 C6.27599609 6.87160156 6.27599609 6.87160156 7.00390625 8.3984375 C7.33261719 9.25695312 7.66132812 10.11546875 8 11 C7.67 11.66 7.34 12.32 7 13 C3 6.375 3 6.375 3 3 C1.35 3.66 -0.3 4.32 -2 5 C-1.34 3.35 -0.68 1.7 0 0 Z " fill="#6A6A6A" transform="translate(555,387)"/>
<path d="M0 0 C0.75 1.625 0.75 1.625 1 4 C-2.136 9.712 -2.136 9.712 -6 11 C-4.54955729 6.89041233 -2.48889248 3.56741255 0 0 Z " fill="#6A6A6A" transform="translate(625,276)"/>
<path d="M0 0 C0.75 1.625 0.75 1.625 1 4 C-2.136 9.712 -2.136 9.712 -6 11 C-4.54955729 6.89041233 -2.48889248 3.56741255 0 0 Z " fill="#6C6C6C" transform="translate(677,193)"/>
</svg>
